<?xml version="1.0" encoding="UTF-8" standalone="no"?>
<!DOCTYPE svg PUBLIC "-//W3C//DTD SVG 1.1//EN"
 "http://www.w3.org/Graphics/SVG/1.1/DTD/svg11.dtd">
<!-- Generated by graphviz version 2.40.1 (20161225.0304)
 -->
<!-- Pages: 1 -->
<svg width="2201pt" height="2143pt"
 viewBox="0.00 0.00 2201.05 2142.50" xmlns="http://www.w3.org/2000/svg" xmlns:xlink="http://www.w3.org/1999/xlink">
<g id="graph0" class="graph" transform="scale(1 1) rotate(0) translate(4 2138.5)">
<polygon fill="#ffffff" stroke="transparent" points="-4,4 -4,-2138.5 2197.0501,-2138.5 2197.0501,4 -4,4"/>
<!-- United States of America -->
<g id="node1" class="node">
<title>United States of America</title>
<ellipse fill="none" stroke="#000000" cx="856.234" cy="-817.85" rx="100.9827" ry="18"/>
<text text-anchor="middle" x="856.234" y="-814.15" font-family="Times,serif" font-size="14.00" fill="#000000">United States of America</text>
</g>
<!-- Mexico -->
<g id="node2" class="node">
<title>Mexico</title>
<ellipse fill="none" stroke="#000000" cx="1584.854" cy="-817.85" rx="38.5" ry="18"/>
<text text-anchor="middle" x="1584.854" y="-814.15" font-family="Times,serif" font-size="14.00" fill="#000000">Mexico</text>
</g>
<!-- United States of America&#45;&gt;Mexico -->
<g id="edge1" class="edge">
<title>United States of America&#45;&gt;Mexico</title>
<path fill="none" stroke="#000000" d="M957.164,-817.85C1117.854,-817.85 1425.354,-817.85 1540.154,-817.85"/>
<polygon fill="#000000" stroke="#000000" points="1540.454,-819.9501 1546.454,-817.85 1540.454,-815.7501 1540.454,-819.9501"/>
</g>
<!-- Japan -->
<g id="node3" class="node">
<title>Japan</title>
<ellipse fill="none" stroke="#000000" cx="1082.154" cy="-1069.2" rx="30.5947" ry="18"/>
<text text-anchor="middle" x="1082.154" y="-1065.5" font-family="Times,serif" font-size="14.00" fill="#000000">Japan</text>
</g>
<!-- United States of America&#45;&gt;Japan -->
<g id="edge2" class="edge">
<title>United States of America&#45;&gt;Japan</title>
<path fill="none" stroke="#000000" d="M872.484,-835.93C913.374,-881.41 1020.354,-1000.4 1063.654,-1048.5"/>
<polygon fill="#000000" stroke="#000000" points="1062.2901,-1050.1253 1067.854,-1053.2 1065.4219,-1047.3267 1062.2901,-1050.1253"/>
</g>
<!-- Republic of Korea -->
<g id="node4" class="node">
<title>Republic of Korea</title>
<ellipse fill="none" stroke="#000000" cx="741.714" cy="-1537.5" rx="76.0865" ry="18"/>
<text text-anchor="middle" x="741.714" y="-1533.8" font-family="Times,serif" font-size="14.00" fill="#000000">Republic of Korea</text>
</g>
<!-- United States of America&#45;&gt;Republic of Korea -->
<g id="edge3" class="edge">
<title>United States of America&#45;&gt;Republic of Korea</title>
<path fill="none" stroke="#000000" d="M853.344,-836C837.714,-934.2 763.324,-1401.6 745.534,-1513.4"/>
<polygon fill="#000000" stroke="#000000" points="743.4481,-1513.1472 744.594,-1519.4 747.5974,-1513.7974 743.4481,-1513.1472"/>
</g>
<!-- Canada -->
<g id="node5" class="node">
<title>Canada</title>
<ellipse fill="none" stroke="#000000" cx="493.724" cy="-1449.9" rx="37.0935" ry="18"/>
<text text-anchor="middle" x="493.724" y="-1446.2" font-family="Times,serif" font-size="14.00" fill="#000000">Canada</text>
</g>
<!-- United States of America&#45;&gt;Canada -->
<g id="edge4" class="edge">
<title>United States of America&#45;&gt;Canada</title>
<path fill="none" stroke="#000000" d="M842.994,-835.86C784.994,-925.78 555.694,-1325.5 503.994,-1426.6"/>
<polygon fill="#000000" stroke="#000000" points="502.0963,-1425.6991 501.254,-1432 505.8417,-1427.5996 502.0963,-1425.6991"/>
</g>
<!-- China, mainland -->
<g id="node6" class="node">
<title>China, mainland</title>
<ellipse fill="none" stroke="#000000" cx="350.784" cy="-1079" rx="69.5877" ry="18"/>
<text text-anchor="middle" x="350.784" y="-1075.3" font-family="Times,serif" font-size="14.00" fill="#000000">China, mainland</text>
</g>
<!-- United States of America&#45;&gt;China, mainland -->
<g id="edge5" class="edge">
<title>United States of America&#45;&gt;China, mainland</title>
<path fill="none" stroke="#000000" d="M823.064,-834.99C732.624,-881.71 482.154,-1011.1 387.584,-1060"/>
<polygon fill="#000000" stroke="#000000" points="386.4981,-1058.1967 382.114,-1062.8 388.4118,-1061.9353 386.4981,-1058.1967"/>
</g>
<!-- Brazil -->
<g id="node7" class="node">
<title>Brazil</title>
<ellipse fill="none" stroke="#000000" cx="1269.254" cy="-1277.2" rx="32.5" ry="18"/>
<text text-anchor="middle" x="1269.254" y="-1273.5" font-family="Times,serif" font-size="14.00" fill="#000000">Brazil</text>
</g>
<!-- United States of America&#45;&gt;Brazil -->
<g id="edge6" class="edge">
<title>United States of America&#45;&gt;Brazil</title>
<path fill="none" stroke="#000000" d="M872.424,-835.86C937.524,-908.26 1179.954,-1177.9 1250.154,-1256"/>
<polygon fill="#000000" stroke="#000000" points="1248.9516,-1257.7961 1254.554,-1260.8 1252.0477,-1254.958 1248.9516,-1257.7961"/>
</g>
<!-- Colombia -->
<g id="node8" class="node">
<title>Colombia</title>
<ellipse fill="none" stroke="#000000" cx="131.884" cy="-738.71" rx="46.2923" ry="18"/>
<text text-anchor="middle" x="131.884" y="-735.01" font-family="Times,serif" font-size="14.00" fill="#000000">Colombia</text>
</g>
<!-- United States of America&#45;&gt;Colombia -->
<g id="edge7" class="edge">
<title>United States of America&#45;&gt;Colombia</title>
<path fill="none" stroke="#000000" d="M769.934,-808.42C617.394,-791.76 304.684,-757.59 182.444,-744.24"/>
<polygon fill="#000000" stroke="#000000" points="182.6069,-742.1454 176.414,-743.58 182.1499,-746.3204 182.6069,-742.1454"/>
</g>
<!-- Egypt -->
<g id="node9" class="node">
<title>Egypt</title>
<ellipse fill="none" stroke="#000000" cx="553.794" cy="-154.92" rx="32" ry="18"/>
<text text-anchor="middle" x="553.794" y="-151.22" font-family="Times,serif" font-size="14.00" fill="#000000">Egypt</text>
</g>
<!-- United States of America&#45;&gt;Egypt -->
<g id="edge8" class="edge">
<title>United States of America&#45;&gt;Egypt</title>
<path fill="none" stroke="#000000" d="M847.984,-799.78C805.524,-706.7 611.694,-281.83 564.284,-177.91"/>
<polygon fill="#000000" stroke="#000000" points="566.1536,-176.9484 561.754,-172.36 562.332,-178.6906 566.1536,-176.9484"/>
</g>
<!-- China, Taiwan Province of -->
<g id="node10" class="node">
<title>China, Taiwan Province of</title>
<ellipse fill="none" stroke="#000000" cx="1319.454" cy="-255.37" rx="106.6812" ry="18"/>
<text text-anchor="middle" x="1319.454" y="-251.67" font-family="Times,serif" font-size="14.00" fill="#000000">China, Taiwan Province of</text>
</g>
<!-- United States of America&#45;&gt;China, Taiwan Province of -->
<g id="edge9" class="edge">
<title>United States of America&#45;&gt;China, Taiwan Province of</title>
<path fill="none" stroke="#000000" d="M871.124,-799.77C939.654,-716.55 1224.654,-370.42 1300.754,-278.09"/>
<polygon fill="#000000" stroke="#000000" points="1302.4209,-279.3684 1304.554,-273.38 1299.1521,-276.7311 1302.4209,-279.3684"/>
</g>
<!-- China, Hong Kong SAR -->
<g id="node11" class="node">
<title>China, Hong Kong SAR</title>
<ellipse fill="none" stroke="#000000" cx="1529.054" cy="-538.05" rx="97.5" ry="18"/>
<text text-anchor="middle" x="1529.054" y="-534.35" font-family="Times,serif" font-size="14.00" fill="#000000">China, Hong Kong SAR</text>
</g>
<!-- United States of America&#45;&gt;China, Hong Kong SAR -->
<g id="edge10" class="edge">
<title>United States of America&#45;&gt;China, Hong Kong SAR</title>
<path fill="none" stroke="#000000" d="M896.304,-801.19C1014.054,-752.2 1358.754,-608.85 1483.354,-557.03"/>
<polygon fill="#000000" stroke="#000000" points="1484.4129,-558.8646 1489.154,-554.63 1482.8069,-554.9837 1484.4129,-558.8646"/>
</g>
<!-- Canada&#45;&gt;United States of America -->
<g id="edge11" class="edge">
<title>Canada&#45;&gt;United States of America</title>
<path fill="none" stroke="#000000" d="M506.314,-1432.9C563.214,-1345 793.844,-943.07 845.884,-841.3"/>
<polygon fill="#000000" stroke="#000000" points="847.8067,-842.1515 848.644,-835.85 844.0597,-840.254 847.8067,-842.1515"/>
</g>
<!-- Brazil&#45;&gt;Japan -->
<g id="edge12" class="edge">
<title>Brazil&#45;&gt;Japan</title>
<path fill="none" stroke="#000000" d="M1254.654,-1260.9C1220.854,-1223.4 1137.754,-1131 1100.654,-1089.7"/>
<polygon fill="#000000" stroke="#000000" points="1102.1139,-1088.1818 1096.554,-1085.1 1098.9786,-1090.9764 1102.1139,-1088.1818"/>
</g>
<!-- Saudi Arabia -->
<g id="node12" class="node">
<title>Saudi Arabia</title>
<ellipse fill="none" stroke="#000000" cx="1255.954" cy="-1527.8" rx="57.3905" ry="18"/>
<text text-anchor="middle" x="1255.954" y="-1524.1" font-family="Times,serif" font-size="14.00" fill="#000000">Saudi Arabia</text>
</g>
<!-- Brazil&#45;&gt;Saudi Arabia -->
<g id="edge13" class="edge">
<title>Brazil&#45;&gt;Saudi Arabia</title>
<path fill="none" stroke="#000000" d="M1268.354,-1295.3C1265.954,-1339.5 1259.954,-1453.4 1257.254,-1503.5"/>
<polygon fill="#000000" stroke="#000000" points="1255.1514,-1503.5041 1256.954,-1509.6 1259.3463,-1503.7104 1255.1514,-1503.5041"/>
</g>
<!-- Iran (Islamic Republic of) -->
<g id="node13" class="node">
<title>Iran (Islamic Republic of)</title>
<ellipse fill="none" stroke="#000000" cx="1519.854" cy="-1290.5" rx="103.5" ry="18"/>
<text text-anchor="middle" x="1519.854" y="-1286.8" font-family="Times,serif" font-size="14.00" fill="#000000">Iran (Islamic Republic of)</text>
</g>
<!-- Brazil&#45;&gt;Iran (Islamic Republic of) -->
<g id="edge14" class="edge">
<title>Brazil&#45;&gt;Iran (Islamic Republic of)</title>
<path fill="none" stroke="#000000" d="M1301.754,-1279C1330.554,-1280.5 1374.054,-1282.8 1414.654,-1285"/>
<polygon fill="#000000" stroke="#000000" points="1414.7595,-1287.1075 1420.854,-1285.3 1414.9625,-1282.9124 1414.7595,-1287.1075"/>
</g>
<!-- Australia -->
<g id="node14" class="node">
<title>Australia</title>
<ellipse fill="none" stroke="#000000" cx="186.924" cy="-1163.6" rx="43" ry="18"/>
<text text-anchor="middle" x="186.924" y="-1159.9" font-family="Times,serif" font-size="14.00" fill="#000000">Australia</text>
</g>
<!-- Australia&#45;&gt;China, mainland -->
<g id="edge15" class="edge">
<title>Australia&#45;&gt;China, mainland</title>
<path fill="none" stroke="#000000" d="M213.984,-1149.7C241.274,-1135.6 283.614,-1113.7 313.964,-1098"/>
<polygon fill="#000000" stroke="#000000" points="315.083,-1099.7872 319.484,-1095.2 313.183,-1096.0415 315.083,-1099.7872"/>
</g>
<!-- Indonesia -->
<g id="node15" class="node">
<title>Indonesia</title>
<ellipse fill="none" stroke="#000000" cx="45" cy="-1237" rx="45" ry="18"/>
<text text-anchor="middle" x="45" y="-1233.3" font-family="Times,serif" font-size="14.00" fill="#000000">Indonesia</text>
</g>
<!-- Australia&#45;&gt;Indonesia -->
<g id="edge16" class="edge">
<title>Australia&#45;&gt;Indonesia</title>
<path fill="none" stroke="#000000" d="M159.554,-1177.8C136.344,-1189.8 102.964,-1207 78.222,-1219.8"/>
<polygon fill="#000000" stroke="#000000" points="77.1439,-1217.9928 72.764,-1222.6 79.0611,-1221.7297 77.1439,-1217.9928"/>
</g>
<!-- Netherlands -->
<g id="node16" class="node">
<title>Netherlands</title>
<ellipse fill="none" stroke="#000000" cx="1944.154" cy="-1785.7" rx="53.5" ry="18"/>
<text text-anchor="middle" x="1944.154" y="-1782" font-family="Times,serif" font-size="14.00" fill="#000000">Netherlands</text>
</g>
<!-- Germany -->
<g id="node17" class="node">
<title>Germany</title>
<ellipse fill="none" stroke="#000000" cx="2042.354" cy="-1920.9" rx="44.393" ry="18"/>
<text text-anchor="middle" x="2042.354" y="-1917.2" font-family="Times,serif" font-size="14.00" fill="#000000">Germany</text>
</g>
<!-- Netherlands&#45;&gt;Germany -->
<g id="edge17" class="edge">
<title>Netherlands&#45;&gt;Germany</title>
<path fill="none" stroke="#000000" d="M1951.654,-1803.6C1966.254,-1828.3 1998.154,-1872.7 2020.054,-1899.2"/>
<polygon fill="#000000" stroke="#000000" points="2018.5406,-1900.6676 2023.954,-1904 2021.8003,-1898.019 2018.5406,-1900.6676"/>
</g>
<!-- Belgium -->
<g id="node18" class="node">
<title>Belgium</title>
<ellipse fill="none" stroke="#000000" cx="1785.254" cy="-1837.3" rx="41.6928" ry="18"/>
<text text-anchor="middle" x="1785.254" y="-1833.6" font-family="Times,serif" font-size="14.00" fill="#000000">Belgium</text>
</g>
<!-- Netherlands&#45;&gt;Belgium -->
<g id="edge18" class="edge">
<title>Netherlands&#45;&gt;Belgium</title>
<path fill="none" stroke="#000000" d="M1897.154,-1794.5C1871.354,-1801.9 1839.954,-1812.3 1817.054,-1821.1"/>
<polygon fill="#000000" stroke="#000000" points="1816.1954,-1819.1803 1811.354,-1823.3 1817.7077,-1823.0986 1816.1954,-1819.1803"/>
</g>
<!-- United Kingdom -->
<g id="node19" class="node">
<title>United Kingdom</title>
<ellipse fill="none" stroke="#000000" cx="1988.254" cy="-1649.8" rx="71" ry="18"/>
<text text-anchor="middle" x="1988.254" y="-1646.1" font-family="Times,serif" font-size="14.00" fill="#000000">United Kingdom</text>
</g>
<!-- Netherlands&#45;&gt;United Kingdom -->
<g id="edge19" class="edge">
<title>Netherlands&#45;&gt;United Kingdom</title>
<path fill="none" stroke="#000000" d="M1950.054,-1767.7C1957.854,-1743.5 1971.854,-1700.6 1980.554,-1673.7"/>
<polygon fill="#000000" stroke="#000000" points="1982.5488,-1674.3562 1982.454,-1668 1978.5643,-1673.028 1982.5488,-1674.3562"/>
</g>
<!-- Germany&#45;&gt;Netherlands -->
<g id="edge20" class="edge">
<title>Germany&#45;&gt;Netherlands</title>
<path fill="none" stroke="#000000" d="M2034.854,-1903C2020.354,-1878.4 1988.754,-1834.3 1966.854,-1807.7"/>
<polygon fill="#000000" stroke="#000000" points="1968.342,-1806.2082 1962.854,-1803 1965.1435,-1808.9303 1968.342,-1806.2082"/>
</g>
<!-- Italy -->
<g id="node20" class="node">
<title>Italy</title>
<ellipse fill="none" stroke="#000000" cx="1944.154" cy="-2056" rx="27" ry="18"/>
<text text-anchor="middle" x="1944.154" y="-2052.3" font-family="Times,serif" font-size="14.00" fill="#000000">Italy</text>
</g>
<!-- Germany&#45;&gt;Italy -->
<g id="edge21" class="edge">
<title>Germany&#45;&gt;Italy</title>
<path fill="none" stroke="#000000" d="M2029.754,-1938.2C2011.854,-1962.8 1979.254,-2007.8 1959.854,-2034.5"/>
<polygon fill="#000000" stroke="#000000" points="1958.035,-2033.4277 1956.154,-2039.5 1961.4112,-2035.9261 1958.035,-2033.4277"/>
</g>
<!-- Belgium&#45;&gt;Netherlands -->
<g id="edge22" class="edge">
<title>Belgium&#45;&gt;Netherlands</title>
<path fill="none" stroke="#000000" d="M1824.354,-1830.7C1850.354,-1823.6 1884.254,-1812.6 1909.354,-1803.1"/>
<polygon fill="#000000" stroke="#000000" points="1910.4265,-1804.9359 1915.254,-1800.8 1908.901,-1801.0227 1910.4265,-1804.9359"/>
</g>
<!-- Belgium&#45;&gt;Germany -->
<g id="edge23" class="edge">
<title>Belgium&#45;&gt;Germany</title>
<path fill="none" stroke="#000000" d="M1818.554,-1848.2C1865.454,-1863.4 1950.754,-1891.1 2001.454,-1907.6"/>
<polygon fill="#000000" stroke="#000000" points="2001.0999,-1909.6906 2007.454,-1909.5 2002.3679,-1905.6866 2001.0999,-1909.6906"/>
</g>
<!-- France -->
<g id="node21" class="node">
<title>France</title>
<ellipse fill="none" stroke="#000000" cx="1785.254" cy="-2004.4" rx="34.5" ry="18"/>
<text text-anchor="middle" x="1785.254" y="-2000.7" font-family="Times,serif" font-size="14.00" fill="#000000">France</text>
</g>
<!-- Belgium&#45;&gt;France -->
<g id="edge24" class="edge">
<title>Belgium&#45;&gt;France</title>
<path fill="none" stroke="#000000" d="M1780.854,-1855.5C1777.954,-1885.7 1777.754,-1946.2 1780.354,-1980.1"/>
<polygon fill="#000000" stroke="#000000" points="1778.293,-1980.6818 1780.854,-1986.5 1782.4802,-1980.3546 1778.293,-1980.6818"/>
</g>
<!-- France&#45;&gt;Netherlands -->
<g id="edge25" class="edge">
<title>France&#45;&gt;Netherlands</title>
<path fill="none" stroke="#000000" d="M1797.754,-1987.2C1826.154,-1948.1 1895.654,-1852.5 1927.554,-1808.5"/>
<polygon fill="#000000" stroke="#000000" points="1929.4304,-1809.4897 1931.254,-1803.4 1926.0308,-1807.0234 1929.4304,-1809.4897"/>
</g>
<!-- France&#45;&gt;Germany -->
<g id="edge26" class="edge">
<title>France&#45;&gt;Germany</title>
<path fill="none" stroke="#000000" d="M1814.754,-1994.8C1860.754,-1979.9 1949.554,-1951 2001.654,-1934.1"/>
<polygon fill="#000000" stroke="#000000" points="2002.4059,-1936.0636 2007.454,-1932.2 2001.0984,-1932.0723 2002.4059,-1936.0636"/>
</g>
<!-- France&#45;&gt;Belgium -->
<g id="edge27" class="edge">
<title>France&#45;&gt;Belgium</title>
<path fill="none" stroke="#000000" d="M1789.654,-1986.5C1792.654,-1956.3 1792.754,-1895.2 1790.154,-1861.3"/>
<polygon fill="#000000" stroke="#000000" points="1792.2451,-1861.1048 1789.654,-1855.3 1788.0596,-1861.4537 1792.2451,-1861.1048"/>
</g>
<!-- France&#45;&gt;Italy -->
<g id="edge28" class="edge">
<title>France&#45;&gt;Italy</title>
<path fill="none" stroke="#000000" d="M1814.754,-2014C1842.954,-2023.1 1885.154,-2036.8 1913.654,-2046.1"/>
<polygon fill="#000000" stroke="#000000" points="1913.0984,-2048.1277 1919.454,-2048 1914.4059,-2044.1364 1913.0984,-2048.1277"/>
</g>
<!-- Algeria -->
<g id="node22" class="node">
<title>Algeria</title>
<ellipse fill="none" stroke="#000000" cx="1742.754" cy="-2116.5" rx="37.0935" ry="18"/>
<text text-anchor="middle" x="1742.754" y="-2112.8" font-family="Times,serif" font-size="14.00" fill="#000000">Algeria</text>
</g>
<!-- France&#45;&gt;Algeria -->
<g id="edge29" class="edge">
<title>France&#45;&gt;Algeria</title>
<path fill="none" stroke="#000000" d="M1778.554,-2022.2C1771.254,-2041.2 1759.754,-2071.7 1751.754,-2092.8"/>
<polygon fill="#000000" stroke="#000000" points="1749.7578,-2092.1439 1749.654,-2098.5 1753.6988,-2093.5959 1749.7578,-2092.1439"/>
</g>
<!-- Spain -->
<g id="node23" class="node">
<title>Spain</title>
<ellipse fill="none" stroke="#000000" cx="1663.254" cy="-2004" rx="30.5947" ry="18"/>
<text text-anchor="middle" x="1663.254" y="-2000.3" font-family="Times,serif" font-size="14.00" fill="#000000">Spain</text>
</g>
<!-- France&#45;&gt;Spain -->
<g id="edge30" class="edge">
<title>France&#45;&gt;Spain</title>
<path fill="none" stroke="#000000" d="M1750.654,-2004.3C1734.854,-2004.2 1716.054,-2004.2 1700.054,-2004.1"/>
<polygon fill="#000000" stroke="#000000" points="1699.854,-2002.0001 1693.854,-2004.1 1699.854,-2006.2001 1699.854,-2002.0001"/>
</g>
<!-- India -->
<g id="node24" class="node">
<title>India</title>
<ellipse fill="none" stroke="#000000" cx="1506.554" cy="-1541.1" rx="28.6953" ry="18"/>
<text text-anchor="middle" x="1506.554" y="-1537.4" font-family="Times,serif" font-size="14.00" fill="#000000">India</text>
</g>
<!-- India&#45;&gt;Saudi Arabia -->
<g id="edge31" class="edge">
<title>India&#45;&gt;Saudi Arabia</title>
<path fill="none" stroke="#000000" d="M1477.854,-1539.6C1439.254,-1537.5 1369.854,-1533.8 1318.854,-1531.1"/>
<polygon fill="#000000" stroke="#000000" points="1318.8499,-1528.9974 1312.754,-1530.8 1318.6436,-1533.1923 1318.8499,-1528.9974"/>
</g>
<!-- India&#45;&gt;Iran (Islamic Republic of) -->
<g id="edge32" class="edge">
<title>India&#45;&gt;Iran (Islamic Republic of)</title>
<path fill="none" stroke="#000000" d="M1507.554,-1523.1C1509.854,-1478.9 1515.854,-1364.9 1518.554,-1314.8"/>
<polygon fill="#000000" stroke="#000000" points="1520.6566,-1314.7959 1518.854,-1308.7 1516.4617,-1314.5896 1520.6566,-1314.7959"/>
</g>
<!-- Bangladesh -->
<g id="node25" class="node">
<title>Bangladesh</title>
<ellipse fill="none" stroke="#000000" cx="1589.454" cy="-1633.3" rx="52" ry="18"/>
<text text-anchor="middle" x="1589.454" y="-1629.6" font-family="Times,serif" font-size="14.00" fill="#000000">Bangladesh</text>
</g>
<!-- India&#45;&gt;Bangladesh -->
<g id="edge33" class="edge">
<title>India&#45;&gt;Bangladesh</title>
<path fill="none" stroke="#000000" d="M1520.954,-1557.2C1534.454,-1572.2 1554.754,-1594.7 1569.654,-1611.3"/>
<polygon fill="#000000" stroke="#000000" points="1568.1941,-1612.8182 1573.754,-1615.9 1571.3294,-1610.0236 1568.1941,-1612.8182"/>
</g>
<!-- Russian Federation -->
<g id="node26" class="node">
<title>Russian Federation</title>
<ellipse fill="none" stroke="#000000" cx="253.664" cy="-291.84" rx="78.7863" ry="18"/>
<text text-anchor="middle" x="253.664" y="-288.14" font-family="Times,serif" font-size="14.00" fill="#000000">Russian Federation</text>
</g>
<!-- Russian Federation&#45;&gt;Egypt -->
<g id="edge34" class="edge">
<title>Russian Federation&#45;&gt;Egypt</title>
<path fill="none" stroke="#000000" d="M288.974,-275.73C348.304,-248.67 466.974,-194.53 523.074,-168.94"/>
<polygon fill="#000000" stroke="#000000" points="524.0356,-170.8096 528.624,-166.41 522.2934,-166.988 524.0356,-170.8096"/>
</g>
<!-- Turkey -->
<g id="node27" class="node">
<title>Turkey</title>
<ellipse fill="none" stroke="#000000" cx="331.844" cy="-463.19" rx="36.5" ry="18"/>
<text text-anchor="middle" x="331.844" y="-459.49" font-family="Times,serif" font-size="14.00" fill="#000000">Turkey</text>
</g>
<!-- Russian Federation&#45;&gt;Turkey -->
<g id="edge35" class="edge">
<title>Russian Federation&#45;&gt;Turkey</title>
<path fill="none" stroke="#000000" d="M261.884,-309.86C276.114,-341.05 305.334,-405.09 321.134,-439.72"/>
<polygon fill="#000000" stroke="#000000" points="319.3333,-440.8326 323.734,-445.42 323.1545,-439.0895 319.3333,-440.8326"/>
</g>
<!-- Switzerland -->
<g id="node28" class="node">
<title>Switzerland</title>
<ellipse fill="none" stroke="#000000" cx="1612.554" cy="-1207.2" rx="52.7911" ry="18"/>
<text text-anchor="middle" x="1612.554" y="-1203.5" font-family="Times,serif" font-size="14.00" fill="#000000">Switzerland</text>
</g>
<!-- Switzerland&#45;&gt;Iran (Islamic Republic of) -->
<g id="edge36" class="edge">
<title>Switzerland&#45;&gt;Iran (Islamic Republic of)</title>
<path fill="none" stroke="#000000" d="M1593.754,-1224.1C1579.454,-1236.9 1559.754,-1254.7 1544.254,-1268.7"/>
<polygon fill="#000000" stroke="#000000" points="1542.695,-1267.2733 1539.554,-1272.8 1545.4559,-1270.4383 1542.695,-1267.2733"/>
</g>
<!-- Ukraine -->
<g id="node29" class="node">
<title>Ukraine</title>
<ellipse fill="none" stroke="#000000" cx="853.914" cy="-18" rx="39" ry="18"/>
<text text-anchor="middle" x="853.914" y="-14.3" font-family="Times,serif" font-size="14.00" fill="#000000">Ukraine</text>
</g>
<!-- Ukraine&#45;&gt;Egypt -->
<g id="edge37" class="edge">
<title>Ukraine&#45;&gt;Egypt</title>
<path fill="none" stroke="#000000" d="M825.954,-30.758C769.674,-56.432 643.144,-114.16 584.594,-140.87"/>
<polygon fill="#000000" stroke="#000000" points="583.3992,-139.107 578.814,-143.51 585.1442,-142.9274 583.3992,-139.107"/>
</g>
<!-- Belarus -->
<g id="node30" class="node">
<title>Belarus</title>
<ellipse fill="none" stroke="#000000" cx="175.494" cy="-120.49" rx="37.8943" ry="18"/>
<text text-anchor="middle" x="175.494" y="-116.79" font-family="Times,serif" font-size="14.00" fill="#000000">Belarus</text>
</g>
<!-- Belarus&#45;&gt;Russian Federation -->
<g id="edge38" class="edge">
<title>Belarus&#45;&gt;Russian Federation</title>
<path fill="none" stroke="#000000" d="M183.564,-138.19C197.694,-169.14 226.894,-233.15 242.784,-267.99"/>
<polygon fill="#000000" stroke="#000000" points="241.0021,-269.1437 245.404,-273.73 244.8229,-267.3997 241.0021,-269.1437"/>
</g>
<!-- Denmark -->
<g id="node31" class="node">
<title>Denmark</title>
<ellipse fill="none" stroke="#000000" cx="2148.854" cy="-1850.7" rx="44.393" ry="18"/>
<text text-anchor="middle" x="2148.854" y="-1847" font-family="Times,serif" font-size="14.00" fill="#000000">Denmark</text>
</g>
<!-- Denmark&#45;&gt;Germany -->
<g id="edge39" class="edge">
<title>Denmark&#45;&gt;Germany</title>
<path fill="none" stroke="#000000" d="M2125.454,-1866.1C2109.354,-1876.7 2087.854,-1890.8 2070.854,-1902.1"/>
<polygon fill="#000000" stroke="#000000" points="2069.5266,-1900.4588 2065.654,-1905.5 2071.8251,-1903.9741 2069.5266,-1900.4588"/>
</g>
<!-- Poland -->
<g id="node32" class="node">
<title>Poland</title>
<ellipse fill="none" stroke="#000000" cx="2146.154" cy="-1999.8" rx="35.194" ry="18"/>
<text text-anchor="middle" x="2146.154" y="-1996.1" font-family="Times,serif" font-size="14.00" fill="#000000">Poland</text>
</g>
<!-- Poland&#45;&gt;Germany -->
<g id="edge40" class="edge">
<title>Poland&#45;&gt;Germany</title>
<path fill="none" stroke="#000000" d="M2126.154,-1984.6C2109.654,-1972 2086.154,-1954.2 2068.254,-1940.6"/>
<polygon fill="#000000" stroke="#000000" points="2069.3823,-1938.8175 2063.354,-1936.8 2066.8084,-1942.1364 2069.3823,-1938.8175"/>
</g>
</g>
</svg>
