<?xml version="1.0" encoding="UTF-8" standalone="no"?>
<!DOCTYPE svg PUBLIC "-//W3C//DTD SVG 1.1//EN"
 "http://www.w3.org/Graphics/SVG/1.1/DTD/svg11.dtd">
<!-- Generated by graphviz version 2.40.1 (20161225.0304)
 -->
<!-- Pages: 1 -->
<svg width="2153pt" height="332pt"
 viewBox="0.00 0.00 2153.18 332.00" xmlns="http://www.w3.org/2000/svg" xmlns:xlink="http://www.w3.org/1999/xlink">
<g id="graph0" class="graph" transform="scale(1 1) rotate(0) translate(4 328)">
<polygon fill="#ffffff" stroke="transparent" points="-4,4 -4,-328 2149.1784,-328 2149.1784,4 -4,4"/>
<!-- United States of America -->
<g id="node1" class="node">
<title>United States of America</title>
<ellipse fill="none" stroke="#000000" cx="486.6611" cy="-234" rx="100.9827" ry="18"/>
<text text-anchor="middle" x="486.6611" y="-230.3" font-family="Times,serif" font-size="14.00" fill="#000000">United States of America</text>
</g>
<!-- Mexico -->
<g id="node2" class="node">
<title>Mexico</title>
<ellipse fill="none" stroke="#000000" cx="1033.6311" cy="-162" rx="38.5" ry="18"/>
<text text-anchor="middle" x="1033.6311" y="-158.3" font-family="Times,serif" font-size="14.00" fill="#000000">Mexico</text>
</g>
<!-- United States of America&#45;&gt;Mexico -->
<g id="edge1" class="edge">
<title>United States of America&#45;&gt;Mexico</title>
<path fill="none" stroke="#000000" d="M585.8911,-230.58C687.4911,-225.39 849.3811,-212.38 985.6611,-180 990.1611,-178.93 994.8211,-177.55 999.3811,-176.03"/>
<polygon fill="#000000" stroke="#000000" points="1000.1418,-177.9892 1005.1311,-174.05 998.7743,-174.018 1000.1418,-177.9892"/>
</g>
<!-- Japan -->
<g id="node3" class="node">
<title>Japan</title>
<ellipse fill="none" stroke="#000000" cx="100.6571" cy="-90" rx="30.5947" ry="18"/>
<text text-anchor="middle" x="100.6571" y="-86.3" font-family="Times,serif" font-size="14.00" fill="#000000">Japan</text>
</g>
<!-- United States of America&#45;&gt;Japan -->
<g id="edge2" class="edge">
<title>United States of America&#45;&gt;Japan</title>
<path fill="none" stroke="#000000" d="M388.7211,-229.75C256.7311,-222.99 35.3601,-207.66 10.657,-180 0,-168.07 2.7739,-157.92 10.657,-144 22.8021,-122.55 47.2441,-108.69 67.5951,-100.39"/>
<polygon fill="#000000" stroke="#000000" points="68.3893,-102.3344 73.2121,-98.193 66.8593,-98.4229 68.3893,-102.3344"/>
</g>
<!-- Republic of Korea -->
<g id="node4" class="node">
<title>Republic of Korea</title>
<ellipse fill="none" stroke="#000000" cx="95.6571" cy="-162" rx="76.0865" ry="18"/>
<text text-anchor="middle" x="95.6571" y="-158.3" font-family="Times,serif" font-size="14.00" fill="#000000">Republic of Korea</text>
</g>
<!-- United States of America&#45;&gt;Republic of Korea -->
<g id="edge3" class="edge">
<title>United States of America&#45;&gt;Republic of Korea</title>
<path fill="none" stroke="#000000" d="M412.9511,-221.72C350.8911,-211.2 259.8311,-195.36 180.6611,-180 173.2211,-178.56 165.4311,-176.99 157.7211,-175.4"/>
<polygon fill="#000000" stroke="#000000" points="158.1426,-173.3428 151.8411,-174.18 157.2893,-177.4552 158.1426,-173.3428"/>
</g>
<!-- Canada -->
<g id="node5" class="node">
<title>Canada</title>
<ellipse fill="none" stroke="#000000" cx="226.6611" cy="-162" rx="37.0935" ry="18"/>
<text text-anchor="middle" x="226.6611" y="-158.3" font-family="Times,serif" font-size="14.00" fill="#000000">Canada</text>
</g>
<!-- United States of America&#45;&gt;Canada -->
<g id="edge4" class="edge">
<title>United States of America&#45;&gt;Canada</title>
<path fill="none" stroke="#000000" d="M418.4411,-220.62C374.0811,-210.67 315.3911,-196.08 264.6611,-180 262.2211,-179.23 259.7311,-178.4 257.2311,-177.53"/>
<polygon fill="#000000" stroke="#000000" points="257.8078,-175.506 251.4511,-175.46 256.3917,-179.4601 257.8078,-175.506"/>
</g>
<!-- China, mainland -->
<g id="node6" class="node">
<title>China, mainland</title>
<ellipse fill="none" stroke="#000000" cx="1282.6311" cy="-162" rx="69.5877" ry="18"/>
<text text-anchor="middle" x="1282.6311" y="-158.3" font-family="Times,serif" font-size="14.00" fill="#000000">China, mainland</text>
</g>
<!-- United States of America&#45;&gt;China, mainland -->
<g id="edge5" class="edge">
<title>United States of America&#45;&gt;China, mainland</title>
<path fill="none" stroke="#000000" d="M586.5011,-231.27C725.6811,-226.38 985.6011,-213.32 1204.6311,-180 1211.8311,-178.91 1219.3311,-177.51 1226.7311,-175.97"/>
<polygon fill="#000000" stroke="#000000" points="1227.4949,-177.9551 1232.9311,-174.66 1226.6266,-173.8458 1227.4949,-177.9551"/>
</g>
<!-- Brazil -->
<g id="node7" class="node">
<title>Brazil</title>
<ellipse fill="none" stroke="#000000" cx="314.6611" cy="-162" rx="32.5" ry="18"/>
<text text-anchor="middle" x="314.6611" y="-158.3" font-family="Times,serif" font-size="14.00" fill="#000000">Brazil</text>
</g>
<!-- United States of America&#45;&gt;Brazil -->
<g id="edge6" class="edge">
<title>United States of America&#45;&gt;Brazil</title>
<path fill="none" stroke="#000000" d="M445.8411,-217.45C419.9411,-206.89 385.7611,-192.81 355.6611,-180 352.5311,-178.67 349.2711,-177.27 346.0211,-175.86"/>
<polygon fill="#000000" stroke="#000000" points="346.5499,-173.7993 340.2111,-173.32 344.8675,-177.6476 346.5499,-173.7993"/>
</g>
<!-- Colombia -->
<g id="node8" class="node">
<title>Colombia</title>
<ellipse fill="none" stroke="#000000" cx="486.6611" cy="-162" rx="46.2923" ry="18"/>
<text text-anchor="middle" x="486.6611" y="-158.3" font-family="Times,serif" font-size="14.00" fill="#000000">Colombia</text>
</g>
<!-- United States of America&#45;&gt;Colombia -->
<g id="edge7" class="edge">
<title>United States of America&#45;&gt;Colombia</title>
<path fill="none" stroke="#000000" d="M486.6611,-215.83C486.6611,-206.95 486.6611,-196.12 486.6611,-186.52"/>
<polygon fill="#000000" stroke="#000000" points="488.7612,-186.41 486.6611,-180.41 484.5612,-186.41 488.7612,-186.41"/>
</g>
<!-- Egypt -->
<g id="node9" class="node">
<title>Egypt</title>
<ellipse fill="none" stroke="#000000" cx="1509.6311" cy="-162" rx="32" ry="18"/>
<text text-anchor="middle" x="1509.6311" y="-158.3" font-family="Times,serif" font-size="14.00" fill="#000000">Egypt</text>
</g>
<!-- United States of America&#45;&gt;Egypt -->
<g id="edge8" class="edge">
<title>United States of America&#45;&gt;Egypt</title>
<path fill="none" stroke="#000000" d="M587.2611,-233.02C802.9411,-230.17 1303.6311,-219.39 1468.6311,-180 1472.4311,-179.1 1476.3311,-177.87 1480.0311,-176.47"/>
<polygon fill="#000000" stroke="#000000" points="1481.0402,-178.3282 1485.8311,-174.15 1479.4803,-174.4286 1481.0402,-178.3282"/>
</g>
<!-- China, Taiwan Province of -->
<g id="node10" class="node">
<title>China, Taiwan Province of</title>
<ellipse fill="none" stroke="#000000" cx="657.6611" cy="-162" rx="106.6812" ry="18"/>
<text text-anchor="middle" x="657.6611" y="-158.3" font-family="Times,serif" font-size="14.00" fill="#000000">China, Taiwan Province of</text>
</g>
<!-- United States of America&#45;&gt;China, Taiwan Province of -->
<g id="edge9" class="edge">
<title>United States of America&#45;&gt;China, Taiwan Province of</title>
<path fill="none" stroke="#000000" d="M526.3211,-217.3C552.0211,-206.48 585.5611,-192.36 612.3111,-181.09"/>
<polygon fill="#000000" stroke="#000000" points="613.1976,-182.9953 617.9111,-178.73 611.5665,-179.125 613.1976,-182.9953"/>
</g>
<!-- China, Hong Kong SAR -->
<g id="node11" class="node">
<title>China, Hong Kong SAR</title>
<ellipse fill="none" stroke="#000000" cx="879.6611" cy="-162" rx="97.5" ry="18"/>
<text text-anchor="middle" x="879.6611" y="-158.3" font-family="Times,serif" font-size="14.00" fill="#000000">China, Hong Kong SAR</text>
</g>
<!-- United States of America&#45;&gt;China, Hong Kong SAR -->
<g id="edge10" class="edge">
<title>United States of America&#45;&gt;China, Hong Kong SAR</title>
<path fill="none" stroke="#000000" d="M557.3711,-221.04C627.0111,-208.29 733.0211,-188.86 804.2511,-175.82"/>
<polygon fill="#000000" stroke="#000000" points="804.6506,-177.8818 810.1711,-174.73 803.89,-173.7513 804.6506,-177.8818"/>
</g>
<!-- Canada&#45;&gt;United States of America -->
<g id="edge11" class="edge">
<title>Canada&#45;&gt;United States of America</title>
<path fill="none" stroke="#000000" d="M258.4511,-171.52C266.4111,-174.43 274.8311,-177.52 282.6611,-180 328.9311,-194.67 381.8211,-208.1 422.2211,-217.89"/>
<polygon fill="#000000" stroke="#000000" points="421.7655,-219.9403 428.0911,-219.31 422.7531,-215.858 421.7655,-219.9403"/>
</g>
<!-- Brazil&#45;&gt;Japan -->
<g id="edge12" class="edge">
<title>Brazil&#45;&gt;Japan</title>
<path fill="none" stroke="#000000" d="M289.0611,-150.54C283.6811,-148.27 278.0111,-145.98 272.6611,-144 225.2111,-126.44 169.1011,-109.52 134.1911,-99.441"/>
<polygon fill="#000000" stroke="#000000" points="134.6978,-97.4017 128.3511,-97.761 133.5367,-101.438 134.6978,-97.4017"/>
</g>
<!-- Saudi Arabia -->
<g id="node12" class="node">
<title>Saudi Arabia</title>
<ellipse fill="none" stroke="#000000" cx="264.6611" cy="-90" rx="57.3905" ry="18"/>
<text text-anchor="middle" x="264.6611" y="-86.3" font-family="Times,serif" font-size="14.00" fill="#000000">Saudi Arabia</text>
</g>
<!-- Brazil&#45;&gt;Saudi Arabia -->
<g id="edge13" class="edge">
<title>Brazil&#45;&gt;Saudi Arabia</title>
<path fill="none" stroke="#000000" d="M302.8111,-144.94C296.1111,-135.29 287.6411,-123.1 280.3911,-112.66"/>
<polygon fill="#000000" stroke="#000000" points="282.0877,-111.4214 276.9411,-107.69 278.6375,-113.8164 282.0877,-111.4214"/>
</g>
<!-- Iran (Islamic Republic of) -->
<g id="node13" class="node">
<title>Iran (Islamic Republic of)</title>
<ellipse fill="none" stroke="#000000" cx="443.6611" cy="-90" rx="103.5" ry="18"/>
<text text-anchor="middle" x="443.6611" y="-86.3" font-family="Times,serif" font-size="14.00" fill="#000000">Iran (Islamic Republic of)</text>
</g>
<!-- Brazil&#45;&gt;Iran (Islamic Republic of) -->
<g id="edge14" class="edge">
<title>Brazil&#45;&gt;Iran (Islamic Republic of)</title>
<path fill="none" stroke="#000000" d="M337.7211,-149.13C357.0411,-138.34 384.9711,-122.76 407.3011,-110.29"/>
<polygon fill="#000000" stroke="#000000" points="408.3352,-112.1178 412.5511,-107.36 406.2884,-108.4503 408.3352,-112.1178"/>
</g>
<!-- Australia -->
<g id="node14" class="node">
<title>Australia</title>
<ellipse fill="none" stroke="#000000" cx="1333.6311" cy="-234" rx="43" ry="18"/>
<text text-anchor="middle" x="1333.6311" y="-230.3" font-family="Times,serif" font-size="14.00" fill="#000000">Australia</text>
</g>
<!-- Australia&#45;&gt;China, mainland -->
<g id="edge15" class="edge">
<title>Australia&#45;&gt;China, mainland</title>
<path fill="none" stroke="#000000" d="M1321.3311,-216.57C1314.5311,-206.99 1306.0311,-194.98 1298.7311,-184.67"/>
<polygon fill="#000000" stroke="#000000" points="1300.4274,-183.4318 1295.2311,-179.77 1297.0097,-185.873 1300.4274,-183.4318"/>
</g>
<!-- Indonesia -->
<g id="node15" class="node">
<title>Indonesia</title>
<ellipse fill="none" stroke="#000000" cx="1414.6311" cy="-162" rx="45" ry="18"/>
<text text-anchor="middle" x="1414.6311" y="-158.3" font-family="Times,serif" font-size="14.00" fill="#000000">Indonesia</text>
</g>
<!-- Australia&#45;&gt;Indonesia -->
<g id="edge16" class="edge">
<title>Australia&#45;&gt;Indonesia</title>
<path fill="none" stroke="#000000" d="M1352.0311,-217.66C1363.6311,-207.33 1378.8311,-193.89 1391.2311,-182.8"/>
<polygon fill="#000000" stroke="#000000" points="1392.9504,-184.0806 1396.0311,-178.52 1390.1552,-180.9458 1392.9504,-184.0806"/>
</g>
<!-- Netherlands -->
<g id="node16" class="node">
<title>Netherlands</title>
<ellipse fill="none" stroke="#000000" cx="1815.6311" cy="-306" rx="53.5" ry="18"/>
<text text-anchor="middle" x="1815.6311" y="-302.3" font-family="Times,serif" font-size="14.00" fill="#000000">Netherlands</text>
</g>
<!-- Germany -->
<g id="node17" class="node">
<title>Germany</title>
<ellipse fill="none" stroke="#000000" cx="1855.6311" cy="-90" rx="44.393" ry="18"/>
<text text-anchor="middle" x="1855.6311" y="-86.3" font-family="Times,serif" font-size="14.00" fill="#000000">Germany</text>
</g>
<!-- Netherlands&#45;&gt;Germany -->
<g id="edge17" class="edge">
<title>Netherlands&#45;&gt;Germany</title>
<path fill="none" stroke="#000000" d="M1787.1311,-290.73C1774.7311,-281.05 1761.8311,-267.46 1755.6311,-252 1749.7311,-237.13 1752.5311,-231.69 1755.6311,-216 1762.4311,-182.01 1765.5311,-172.2 1785.6311,-144 1795.5311,-130.18 1809.5311,-117.45 1822.6311,-107.82"/>
<polygon fill="#000000" stroke="#000000" points="1824.0809,-109.3644 1827.7311,-104.16 1821.632,-105.9522 1824.0809,-109.3644"/>
</g>
<!-- Belgium -->
<g id="node18" class="node">
<title>Belgium</title>
<ellipse fill="none" stroke="#000000" cx="1815.6311" cy="-234" rx="41.6928" ry="18"/>
<text text-anchor="middle" x="1815.6311" y="-230.3" font-family="Times,serif" font-size="14.00" fill="#000000">Belgium</text>
</g>
<!-- Netherlands&#45;&gt;Belgium -->
<g id="edge18" class="edge">
<title>Netherlands&#45;&gt;Belgium</title>
<path fill="none" stroke="#000000" d="M1809.7311,-287.83C1808.8311,-278.81 1808.6311,-267.79 1809.2311,-258.07"/>
<polygon fill="#000000" stroke="#000000" points="1811.3387,-258.0603 1809.7311,-251.91 1807.1525,-257.7204 1811.3387,-258.0603"/>
</g>
<!-- United Kingdom -->
<g id="node19" class="node">
<title>United Kingdom</title>
<ellipse fill="none" stroke="#000000" cx="1945.6311" cy="-234" rx="71" ry="18"/>
<text text-anchor="middle" x="1945.6311" y="-230.3" font-family="Times,serif" font-size="14.00" fill="#000000">United Kingdom</text>
</g>
<!-- Netherlands&#45;&gt;United Kingdom -->
<g id="edge19" class="edge">
<title>Netherlands&#45;&gt;United Kingdom</title>
<path fill="none" stroke="#000000" d="M1843.5311,-290.55C1863.1311,-279.71 1889.4311,-265.11 1910.5311,-253.47"/>
<polygon fill="#000000" stroke="#000000" points="1911.8023,-255.1664 1916.0311,-250.42 1909.7654,-251.4933 1911.8023,-255.1664"/>
</g>
<!-- Germany&#45;&gt;Netherlands -->
<g id="edge20" class="edge">
<title>Germany&#45;&gt;Netherlands</title>
<path fill="none" stroke="#000000" d="M1839.8311,-106.88C1828.5311,-116.62 1813.8311,-129.73 1803.6311,-144 1783.5311,-172.2 1780.4311,-182.01 1773.6311,-216 1770.5311,-231.69 1767.7311,-237.13 1773.6311,-252 1778.4311,-264.13 1787.4311,-275.12 1796.0311,-283.96"/>
<polygon fill="#000000" stroke="#000000" points="1795.0006,-285.8984 1800.7311,-288.65 1797.9673,-282.9253 1795.0006,-285.8984"/>
</g>
<!-- Italy -->
<g id="node20" class="node">
<title>Italy</title>
<ellipse fill="none" stroke="#000000" cx="1891.6311" cy="-18" rx="27" ry="18"/>
<text text-anchor="middle" x="1891.6311" y="-14.3" font-family="Times,serif" font-size="14.00" fill="#000000">Italy</text>
</g>
<!-- Germany&#45;&gt;Italy -->
<g id="edge21" class="edge">
<title>Germany&#45;&gt;Italy</title>
<path fill="none" stroke="#000000" d="M1864.5311,-72.202C1869.3311,-62.645 1875.2311,-50.765 1880.3311,-40.566"/>
<polygon fill="#000000" stroke="#000000" points="1882.266,-41.3948 1883.1311,-35.097 1878.5275,-39.4807 1882.266,-41.3948"/>
</g>
<!-- Belgium&#45;&gt;Netherlands -->
<g id="edge22" class="edge">
<title>Belgium&#45;&gt;Netherlands</title>
<path fill="none" stroke="#000000" d="M1821.6311,-251.91C1822.4311,-260.9 1822.6311,-271.91 1822.1311,-281.65"/>
<polygon fill="#000000" stroke="#000000" points="1820.0219,-281.6802 1821.6311,-287.83 1824.2082,-282.0189 1820.0219,-281.6802"/>
</g>
<!-- Belgium&#45;&gt;Germany -->
<g id="edge23" class="edge">
<title>Belgium&#45;&gt;Germany</title>
<path fill="none" stroke="#000000" d="M1807.7311,-216.08C1800.7311,-197.43 1792.9311,-167.67 1802.6311,-144 1808.1311,-130.71 1818.5311,-118.93 1828.7311,-109.79"/>
<polygon fill="#000000" stroke="#000000" points="1830.1883,-111.3057 1833.3311,-105.78 1827.4284,-108.1397 1830.1883,-111.3057"/>
</g>
<!-- France -->
<g id="node21" class="node">
<title>France</title>
<ellipse fill="none" stroke="#000000" cx="2040.6311" cy="-162" rx="34.5" ry="18"/>
<text text-anchor="middle" x="2040.6311" y="-158.3" font-family="Times,serif" font-size="14.00" fill="#000000">France</text>
</g>
<!-- Belgium&#45;&gt;France -->
<g id="edge24" class="edge">
<title>Belgium&#45;&gt;France</title>
<path fill="none" stroke="#000000" d="M1843.2311,-220.5C1847.6311,-218.93 1852.2311,-217.39 1856.6311,-216 1914.2311,-197.76 1930.5311,-199.47 1987.6311,-180 1993.3311,-178.08 1999.2311,-175.82 2005.0311,-173.56"/>
<polygon fill="#000000" stroke="#000000" points="2005.9968,-175.4379 2010.8311,-171.31 2004.4777,-171.5222 2005.9968,-175.4379"/>
</g>
<!-- France&#45;&gt;Netherlands -->
<g id="edge25" class="edge">
<title>France&#45;&gt;Netherlands</title>
<path fill="none" stroke="#000000" d="M2042.9311,-180C2044.4311,-200.14 2043.5311,-232.5 2025.6311,-252 2005.0311,-274.44 1926.6311,-290.08 1871.7311,-298.56"/>
<polygon fill="#000000" stroke="#000000" points="1871.0509,-296.5387 1865.4311,-299.51 1871.6772,-300.6918 1871.0509,-296.5387"/>
</g>
<!-- France&#45;&gt;Germany -->
<g id="edge26" class="edge">
<title>France&#45;&gt;Germany</title>
<path fill="none" stroke="#000000" d="M2013.2311,-150.67C2007.7311,-148.44 2002.0311,-146.13 1996.6311,-144 1962.0311,-130.31 1922.5311,-115.2 1894.1311,-104.46"/>
<polygon fill="#000000" stroke="#000000" points="1894.5861,-102.387 1888.2311,-102.23 1893.1011,-106.3158 1894.5861,-102.387"/>
</g>
<!-- France&#45;&gt;Belgium -->
<g id="edge27" class="edge">
<title>France&#45;&gt;Belgium</title>
<path fill="none" stroke="#000000" d="M2017.5311,-175.62C2013.6311,-177.17 2009.5311,-178.67 2005.6311,-180 1948.5311,-199.47 1932.2311,-197.76 1874.6311,-216 1868.8311,-217.84 1862.7311,-219.93 1856.6311,-222.01"/>
<polygon fill="#000000" stroke="#000000" points="1855.6123,-220.1405 1850.6311,-224.09 1856.988,-224.1088 1855.6123,-220.1405"/>
</g>
<!-- France&#45;&gt;Italy -->
<g id="edge28" class="edge">
<title>France&#45;&gt;Italy</title>
<path fill="none" stroke="#000000" d="M2023.5311,-146.3C2011.9311,-135.6 1996.2311,-121.05 1982.6311,-108 1957.6311,-84.031 1929.4311,-55.903 1911.1311,-37.555"/>
<polygon fill="#000000" stroke="#000000" points="1912.3755,-35.8325 1906.6311,-33.11 1909.424,-38.8205 1912.3755,-35.8325"/>
</g>
<!-- Algeria -->
<g id="node22" class="node">
<title>Algeria</title>
<ellipse fill="none" stroke="#000000" cx="2028.6311" cy="-90" rx="37.0935" ry="18"/>
<text text-anchor="middle" x="2028.6311" y="-86.3" font-family="Times,serif" font-size="14.00" fill="#000000">Algeria</text>
</g>
<!-- France&#45;&gt;Algeria -->
<g id="edge29" class="edge">
<title>France&#45;&gt;Algeria</title>
<path fill="none" stroke="#000000" d="M2037.6311,-143.83C2036.1311,-134.95 2034.3311,-124.12 2032.7311,-114.52"/>
<polygon fill="#000000" stroke="#000000" points="2034.7727,-113.992 2031.7311,-108.41 2030.6279,-114.6704 2034.7727,-113.992"/>
</g>
<!-- Spain -->
<g id="node23" class="node">
<title>Spain</title>
<ellipse fill="none" stroke="#000000" cx="2114.6311" cy="-90" rx="30.5947" ry="18"/>
<text text-anchor="middle" x="2114.6311" y="-86.3" font-family="Times,serif" font-size="14.00" fill="#000000">Spain</text>
</g>
<!-- France&#45;&gt;Spain -->
<g id="edge30" class="edge">
<title>France&#45;&gt;Spain</title>
<path fill="none" stroke="#000000" d="M2057.0311,-146.02C2068.0311,-135.34 2082.5311,-121.21 2094.3311,-109.82"/>
<polygon fill="#000000" stroke="#000000" points="2095.9962,-111.1298 2098.8311,-105.44 2093.0668,-108.1201 2095.9962,-111.1298"/>
</g>
<!-- India -->
<g id="node24" class="node">
<title>India</title>
<ellipse fill="none" stroke="#000000" cx="393.6611" cy="-162" rx="28.6953" ry="18"/>
<text text-anchor="middle" x="393.6611" y="-158.3" font-family="Times,serif" font-size="14.00" fill="#000000">India</text>
</g>
<!-- India&#45;&gt;Saudi Arabia -->
<g id="edge31" class="edge">
<title>India&#45;&gt;Saudi Arabia</title>
<path fill="none" stroke="#000000" d="M372.0611,-149.95C352.0111,-138.76 321.8311,-121.91 298.5611,-108.92"/>
<polygon fill="#000000" stroke="#000000" points="299.3741,-106.9689 293.1111,-105.88 297.3281,-110.6369 299.3741,-106.9689"/>
</g>
<!-- India&#45;&gt;Iran (Islamic Republic of) -->
<g id="edge32" class="edge">
<title>India&#45;&gt;Iran (Islamic Republic of)</title>
<path fill="none" stroke="#000000" d="M405.2511,-145.3C411.9011,-135.73 420.3311,-123.58 427.6111,-113.11"/>
<polygon fill="#000000" stroke="#000000" points="429.3779,-114.2473 431.0711,-108.12 425.9265,-111.8541 429.3779,-114.2473"/>
</g>
<!-- Bangladesh -->
<g id="node25" class="node">
<title>Bangladesh</title>
<ellipse fill="none" stroke="#000000" cx="616.6611" cy="-90" rx="52" ry="18"/>
<text text-anchor="middle" x="616.6611" y="-86.3" font-family="Times,serif" font-size="14.00" fill="#000000">Bangladesh</text>
</g>
<!-- India&#45;&gt;Bangladesh -->
<g id="edge33" class="edge">
<title>India&#45;&gt;Bangladesh</title>
<path fill="none" stroke="#000000" d="M416.3111,-150.55C421.3011,-148.23 426.6011,-145.92 431.6611,-144 485.3111,-123.65 500.5811,-124.12 555.6611,-108 560.6111,-106.55 565.7811,-105.03 570.9411,-103.51"/>
<polygon fill="#000000" stroke="#000000" points="571.7971,-105.4473 576.9611,-101.74 570.6124,-101.4178 571.7971,-105.4473"/>
</g>
<!-- Russian Federation -->
<g id="node26" class="node">
<title>Russian Federation</title>
<ellipse fill="none" stroke="#000000" cx="1620.6311" cy="-234" rx="78.7863" ry="18"/>
<text text-anchor="middle" x="1620.6311" y="-230.3" font-family="Times,serif" font-size="14.00" fill="#000000">Russian Federation</text>
</g>
<!-- Russian Federation&#45;&gt;Egypt -->
<g id="edge34" class="edge">
<title>Russian Federation&#45;&gt;Egypt</title>
<path fill="none" stroke="#000000" d="M1594.3311,-216.94C1576.7311,-205.48 1553.5311,-190.45 1535.8311,-179"/>
<polygon fill="#000000" stroke="#000000" points="1536.796,-177.1208 1530.6311,-175.57 1534.4833,-180.6267 1536.796,-177.1208"/>
</g>
<!-- Turkey -->
<g id="node27" class="node">
<title>Turkey</title>
<ellipse fill="none" stroke="#000000" cx="1620.6311" cy="-162" rx="36.5" ry="18"/>
<text text-anchor="middle" x="1620.6311" y="-158.3" font-family="Times,serif" font-size="14.00" fill="#000000">Turkey</text>
</g>
<!-- Russian Federation&#45;&gt;Turkey -->
<g id="edge35" class="edge">
<title>Russian Federation&#45;&gt;Turkey</title>
<path fill="none" stroke="#000000" d="M1620.6311,-215.83C1620.6311,-206.95 1620.6311,-196.12 1620.6311,-186.52"/>
<polygon fill="#000000" stroke="#000000" points="1622.7312,-186.41 1620.6311,-180.41 1618.5312,-186.41 1622.7312,-186.41"/>
</g>
<!-- Switzerland -->
<g id="node28" class="node">
<title>Switzerland</title>
<ellipse fill="none" stroke="#000000" cx="1142.6311" cy="-162" rx="52.7911" ry="18"/>
<text text-anchor="middle" x="1142.6311" y="-158.3" font-family="Times,serif" font-size="14.00" fill="#000000">Switzerland</text>
</g>
<!-- Switzerland&#45;&gt;Iran (Islamic Republic of) -->
<g id="edge36" class="edge">
<title>Switzerland&#45;&gt;Iran (Islamic Republic of)</title>
<path fill="none" stroke="#000000" d="M1104.6311,-149.56C1096.7311,-147.39 1088.5311,-145.39 1080.6311,-144 850.3711,-103.16 788.0211,-134.58 555.6611,-108 545.0911,-106.79 534.0011,-105.29 523.0711,-103.68"/>
<polygon fill="#000000" stroke="#000000" points="523.2667,-101.5859 517.0211,-102.77 522.642,-105.7392 523.2667,-101.5859"/>
</g>
<!-- Ukraine -->
<g id="node29" class="node">
<title>Ukraine</title>
<ellipse fill="none" stroke="#000000" cx="1484.6311" cy="-234" rx="39" ry="18"/>
<text text-anchor="middle" x="1484.6311" y="-230.3" font-family="Times,serif" font-size="14.00" fill="#000000">Ukraine</text>
</g>
<!-- Ukraine&#45;&gt;Egypt -->
<g id="edge37" class="edge">
<title>Ukraine&#45;&gt;Egypt</title>
<path fill="none" stroke="#000000" d="M1490.8311,-216.2C1494.0311,-206.94 1498.0311,-195.5 1501.5311,-185.52"/>
<polygon fill="#000000" stroke="#000000" points="1503.5192,-186.1963 1503.4311,-179.84 1499.5361,-184.8639 1503.5192,-186.1963"/>
</g>
<!-- Belarus -->
<g id="node30" class="node">
<title>Belarus</title>
<ellipse fill="none" stroke="#000000" cx="1620.6311" cy="-306" rx="37.8943" ry="18"/>
<text text-anchor="middle" x="1620.6311" y="-302.3" font-family="Times,serif" font-size="14.00" fill="#000000">Belarus</text>
</g>
<!-- Belarus&#45;&gt;Russian Federation -->
<g id="edge38" class="edge">
<title>Belarus&#45;&gt;Russian Federation</title>
<path fill="none" stroke="#000000" d="M1620.6311,-287.83C1620.6311,-278.95 1620.6311,-268.12 1620.6311,-258.52"/>
<polygon fill="#000000" stroke="#000000" points="1622.7312,-258.41 1620.6311,-252.41 1618.5312,-258.41 1622.7312,-258.41"/>
</g>
<!-- Denmark -->
<g id="node31" class="node">
<title>Denmark</title>
<ellipse fill="none" stroke="#000000" cx="1855.6311" cy="-162" rx="44.393" ry="18"/>
<text text-anchor="middle" x="1855.6311" y="-158.3" font-family="Times,serif" font-size="14.00" fill="#000000">Denmark</text>
</g>
<!-- Denmark&#45;&gt;Germany -->
<g id="edge39" class="edge">
<title>Denmark&#45;&gt;Germany</title>
<path fill="none" stroke="#000000" d="M1855.6311,-143.83C1855.6311,-134.95 1855.6311,-124.12 1855.6311,-114.52"/>
<polygon fill="#000000" stroke="#000000" points="1857.7312,-114.41 1855.6311,-108.41 1853.5312,-114.41 1857.7312,-114.41"/>
</g>
<!-- Poland -->
<g id="node32" class="node">
<title>Poland</title>
<ellipse fill="none" stroke="#000000" cx="1952.6311" cy="-162" rx="35.194" ry="18"/>
<text text-anchor="middle" x="1952.6311" y="-158.3" font-family="Times,serif" font-size="14.00" fill="#000000">Poland</text>
</g>
<!-- Poland&#45;&gt;Germany -->
<g id="edge40" class="edge">
<title>Poland&#45;&gt;Germany</title>
<path fill="none" stroke="#000000" d="M1932.5311,-147.08C1918.0311,-136.28 1898.1311,-121.56 1882.3311,-109.77"/>
<polygon fill="#000000" stroke="#000000" points="1883.1152,-107.7423 1877.0311,-105.9 1880.6384,-111.1343 1883.1152,-107.7423"/>
</g>
</g>
</svg>
